<?xml version="1.0" standalone="no"?><svg xmlns="http://www.w3.org/2000/svg" viewBox="0 0 1440 320"><path fill="#F7770F" fill-opacity="1" d="M0,192L15,192C30,192,60,192,90,170.7C120,149,150,107,180,90.7C210,75,240,85,270,90.7C300,96,330,96,360,101.3C390,107,420,117,450,112C480,107,510,85,540,101.3C570,117,600,171,630,192C660,213,690,203,720,176C750,149,780,107,810,117.3C840,128,870,192,900,202.7C930,213,960,171,990,133.3C1020,96,1050,64,1080,64C1110,64,1140,96,1170,133.3C1200,171,1230,213,1260,240C1290,267,1320,277,1350,240C1380,203,1410,117,1425,74.7L1440,32L1440,320L1425,320C1410,320,1380,320,1350,320C1320,320,1290,320,1260,320C1230,320,1200,320,1170,320C1140,320,1110,320,1080,320C1050,320,1020,320,990,320C960,320,930,320,900,320C870,320,840,320,810,320C780,320,750,320,720,320C690,320,660,320,630,320C600,320,570,320,540,320C510,320,480,320,450,320C420,320,390,320,360,320C330,320,300,320,270,320C240,320,210,320,180,320C150,320,120,320,90,320C60,320,30,320,15,320L0,320Z"></path></svg>